<svg width="1836" height="154" viewBox="0 0 1836 154" fill="none" xmlns="http://www.w3.org/2000/svg">
<path fill-rule="evenodd" clip-rule="evenodd" d="M0 115.5L44.37 125.125C87.21 134.75 174.42 154 261.63 154C350.37 154 437.58 134.75 524.79 121.917C612 109.083 699.21 102.667 786.42 109.083C873.63 115.5 962.37 134.75 1049.58 137.958C1136.79 141.167 1224 128.333 1311.21 112.292C1398.42 96.25 1485.63 77 1574.37 70.5833C1661.58 64.1667 1748.79 70.5833 1791.63 73.7917L1836 77V0H1791.63C1748.79 0 1661.58 0 1574.37 0C1485.63 0 1398.42 0 1311.21 0C1224 0 1136.79 0 1049.58 0C962.37 0 873.63 0 786.42 0C699.21 0 612 0 524.79 0C437.58 0 350.37 0 261.63 0C174.42 0 87.21 0 44.37 0H0V115.5Z" fill="#EEEDEB"/>
</svg>
