<svg width="1836" height="149" viewBox="0 0 1836 149" fill="none" xmlns="http://www.w3.org/2000/svg">
<path fill-rule="evenodd" clip-rule="evenodd" d="M0 124.003L50.49 115.736C102.51 107.47 203.49 90.9357 306 90.9357C408.51 90.9357 509.49 107.47 612 124.003C714.51 140.537 815.49 157.071 918 144.671C1020.51 132.27 1121.49 90.9357 1224 82.6689C1326.51 74.402 1427.49 99.2026 1530 111.603C1632.51 124.003 1733.49 124.003 1785.51 124.003H1836V0H1785.51C1733.49 0 1632.51 0 1530 0C1427.49 0 1326.51 0 1224 0C1121.49 0 1020.51 0 918 0C815.49 0 714.51 0 612 0C509.49 0 408.51 0 306 0C203.49 0 102.51 0 50.49 0H0V124.003Z" fill="white"/>
</svg>
